<svg width="0" height="0" class="hidden">
  <symbol fill="none" xmlns="http://www.w3.org/2000/svg" viewBox="0 0 183 47" id="kapusta_mobile">
    <path fill-rule="evenodd" clip-rule="evenodd" d="M8.68835 26.5354L12.2528 22.6244L19.9263 36.0406H30.2236L18.045 15.941L30.2236 0H19.4807L11.7082 11.3122L8.68835 15.8915V0H0V36.0406H8.68835V26.5354ZM46.3379 33.6395C46.5689 34.6957 46.833 35.496 47.13 36.0406H55.4718V35.6198C54.7457 34.3161 54.3662 32.4349 54.3332 29.9761V18.1193C54.2836 15.2149 53.2688 12.9294 51.2885 11.2627C49.3083 9.59597 46.6102 8.76261 43.1942 8.76261C39.7783 8.76261 36.9647 9.57122 34.7534 11.1884C32.5586 12.8056 31.4612 14.9096 31.4612 17.5005H39.8031C39.8031 15.5532 40.7932 14.5796 42.7734 14.5796C44.9022 14.5796 45.9666 15.809 45.9666 18.2678V19.6788H43.3923C39.2997 19.6788 36.1808 20.4213 34.0356 21.9065C31.8903 23.3917 30.8177 25.5865 30.8177 28.4909C30.8177 30.8012 31.7005 32.7237 33.4663 34.2584C35.232 35.7765 37.3773 36.5356 39.9021 36.5356C42.6579 36.5356 44.8032 35.5703 46.3379 33.6395ZM44.4814 29.9266C43.8048 30.3721 42.9467 30.5949 41.9071 30.5949C41.115 30.5949 40.4631 30.3639 39.9516 29.9018C39.44 29.4232 39.1842 28.8044 39.1842 28.0453C39.1842 25.438 40.6364 24.1343 43.5408 24.1343H45.9666V28.4166C45.6696 28.9777 45.1745 29.481 44.4814 29.9266ZM83.8389 22.8472C83.8389 27.0057 82.8983 30.3309 81.017 32.8227C79.1523 35.298 76.6275 36.5356 73.4426 36.5356C70.9838 36.5356 68.9623 35.6363 67.3781 33.8376V46.3379H59.0363V9.25768H66.8335L67.081 11.733C68.6817 9.75274 70.7857 8.76261 73.3931 8.76261C76.6935 8.76261 79.2596 9.98377 81.0913 12.4261C82.923 14.8519 83.8389 18.1936 83.8389 22.4511V22.8472ZM75.4971 22.3273C75.4971 17.5747 74.1109 15.1984 71.3386 15.1984C69.3583 15.1984 68.0381 15.908 67.3781 17.3272V27.872C68.1042 29.3572 69.4408 30.0998 71.3881 30.0998C74.0449 30.0998 75.4146 27.806 75.4971 23.2185V22.3273ZM96.3392 36.5356C99.3426 36.5356 101.727 35.4053 103.493 33.1445L103.74 36.0406H111.562V9.25768H103.171V28.0453C102.363 29.415 101.001 30.0998 99.0868 30.0998C96.8591 30.0998 95.7452 28.9529 95.7452 26.6591V9.25768H87.4034V26.6096C87.4034 29.811 88.1542 32.2699 89.6559 33.9861C91.1741 35.6858 93.4019 36.5356 96.3392 36.5356ZM130.177 28.5156C130.177 27.806 129.805 27.2367 129.063 26.8077C128.32 26.3786 126.909 25.933 124.83 25.471C122.751 25.0089 121.035 24.4066 119.681 23.664C118.328 22.9049 117.297 21.989 116.587 20.9164C115.878 19.8438 115.523 18.6144 115.523 17.2282C115.523 14.7694 116.538 12.7479 118.568 11.1637C120.272 9.81955 122.419 9.03976 125.007 8.82431V2.74128H128.983V8.90361C131.404 9.19751 133.428 9.95086 135.053 11.1637C137.198 12.7644 138.271 14.8684 138.271 17.4757H129.905C129.905 15.3304 128.774 14.2578 126.513 14.2578C125.639 14.2578 124.904 14.5053 124.31 15.0004C123.716 15.479 123.419 16.0813 123.419 16.8074C123.419 17.55 123.782 18.1523 124.508 18.6144C125.234 19.0764 126.39 19.456 127.974 19.753C129.574 20.05 130.977 20.4048 132.182 20.8174C136.208 22.2036 138.222 24.6871 138.222 28.2681C138.222 30.7104 137.132 32.6989 134.954 34.2336C133.328 35.388 131.338 36.1083 128.983 36.3943V42.5017H125.007V36.4713C123.324 36.326 121.788 35.9349 120.399 35.298C118.601 34.4729 117.198 33.3507 116.191 31.9316C115.185 30.5124 114.681 29.0189 114.681 27.4512H122.479C122.512 28.6889 122.924 29.5965 123.716 30.1741C124.508 30.7352 125.523 31.0157 126.761 31.0157C127.9 31.0157 128.749 30.7847 129.31 30.3226C129.888 29.8605 130.177 29.2582 130.177 28.5156ZM151.861 9.25768V2.59908H143.519V9.25768H140.103V15.0499H143.519V28.3424C143.519 31.0982 144.204 33.1527 145.573 34.5059C146.943 35.8591 149.063 36.5356 151.935 36.5356C153.569 36.5356 155.136 36.2964 156.638 35.8178V29.8523C156.077 29.9513 155.384 30.0008 154.559 30.0008C153.486 30.0008 152.768 29.8028 152.405 29.4067C152.042 29.0107 151.861 28.3093 151.861 27.3027V15.0499H156.267V9.25768H151.861ZM174.658 36.0406C174.361 35.496 174.097 34.6957 173.866 33.6395C172.331 35.5703 170.186 36.5356 167.43 36.5356C164.905 36.5356 162.76 35.7765 160.994 34.2584C159.229 32.7237 158.346 30.8012 158.346 28.4909C158.346 25.5865 159.419 23.3917 161.564 21.9065C163.709 20.4213 166.828 19.6788 170.92 19.6788H173.495V18.2678C173.495 15.809 172.43 14.5796 170.302 14.5796C168.321 14.5796 167.331 15.5532 167.331 17.5005H158.989C158.989 14.9096 160.087 12.8056 162.282 11.1884C164.493 9.57122 167.307 8.76261 170.722 8.76261C174.138 8.76261 176.836 9.59597 178.817 11.2627C180.797 12.9294 181.812 15.2149 181.861 18.1193V29.9761C181.894 32.4349 182.274 34.3161 183 35.6198V36.0406H174.658ZM169.435 30.5949C170.475 30.5949 171.333 30.3721 172.01 29.9266C172.703 29.481 173.198 28.9777 173.495 28.4166V24.1343H171.069C168.165 24.1343 166.712 25.438 166.712 28.0453C166.712 28.8044 166.968 29.4232 167.48 29.9018C167.991 30.3639 168.643 30.5949 169.435 30.5949Z" fill="black"></path>
  </symbol>
  <symbol fill="none" xmlns="http://www.w3.org/2000/svg" viewBox="0 0 307 78" id="kapusta_tablet">
    <path fill-rule="evenodd" clip-rule="evenodd" d="M14.5528 44.4462L20.5232 37.8954L33.3761 60.3673H50.6239L30.2251 26.7009L50.6239 0H32.6298L19.6111 18.9477L14.5528 26.618V0H0V60.3673H14.5528V44.4462ZM77.6151 56.3456C78.002 58.1146 78.4443 59.4551 78.9418 60.3673H92.9142V59.6624C91.698 57.4788 91.0623 54.3278 91.007 50.2093V30.3495C90.9241 25.4847 89.2242 21.6565 85.9073 18.8648C82.5904 16.0731 78.0711 14.6772 72.3495 14.6772C66.6279 14.6772 61.9152 16.0316 58.2113 18.7404C54.5351 21.4492 52.697 24.9734 52.697 29.313H66.6694C66.6694 26.0514 68.3278 24.4206 71.6447 24.4206C75.2103 24.4206 76.9932 26.4798 76.9932 30.5983V32.9615H72.6812C65.8263 32.9615 60.6022 34.2054 57.0089 36.693C53.4156 39.1807 51.619 42.8569 51.619 47.7217C51.619 51.5914 53.0978 54.8115 56.0553 57.3821C59.0129 59.925 62.6062 61.1965 66.8352 61.1965C71.4512 61.1965 75.0445 59.5795 77.6151 56.3456ZM74.5055 50.1264C73.3722 50.8727 71.9349 51.2458 70.1935 51.2458C68.8668 51.2458 67.775 50.8589 66.9181 50.0849C66.0613 49.2834 65.6328 48.2468 65.6328 46.9754C65.6328 42.6081 68.0652 40.4245 72.93 40.4245H76.9932V47.5973C76.4956 48.5371 75.6664 49.3801 74.5055 50.1264ZM140.429 38.2685C140.429 45.234 138.853 50.8036 135.702 54.9773C132.579 59.1235 128.35 61.1965 123.015 61.1965C118.896 61.1965 115.51 59.6901 112.857 56.6772V77.6151H98.8846V15.5064H111.945L112.359 19.6525C115.041 16.3357 118.565 14.6772 122.932 14.6772C128.46 14.6772 132.758 16.7226 135.826 20.8134C138.894 24.8766 140.429 30.4739 140.429 37.6052V38.2685ZM126.456 37.3979C126.456 29.4373 124.134 25.4571 119.491 25.4571C116.174 25.4571 113.963 26.6456 112.857 29.0227V46.6851C114.073 49.1728 116.312 50.4166 119.574 50.4166C124.024 50.4166 126.318 46.5746 126.456 38.8905V37.3979ZM161.366 61.1965C166.397 61.1965 170.391 59.3031 173.349 55.5163L173.763 60.3673H186.865V15.5064H172.81V46.9754C171.455 49.2695 169.175 50.4166 165.969 50.4166C162.237 50.4166 160.371 48.4956 160.371 44.6535V15.5064H146.399V44.5706C146.399 49.9329 147.657 54.0514 150.172 56.926C152.715 59.773 156.446 61.1965 161.366 61.1965ZM218.044 47.7631C218.044 46.5746 217.422 45.621 216.178 44.9023C214.934 44.1837 212.571 43.4374 209.088 42.6634C205.605 41.8895 202.731 40.8806 200.464 39.6368C198.198 38.3653 196.47 36.8312 195.282 35.0346C194.093 33.2379 193.499 31.1787 193.499 28.8569C193.499 24.7384 195.199 21.3524 198.598 18.6989C201.453 16.4475 205.049 15.1414 209.385 14.7805V4.59161H216.045V14.9134C220.1 15.4057 223.489 16.6675 226.211 18.6989C229.805 21.3801 231.601 24.9043 231.601 29.2715H217.588C217.588 25.6782 215.694 23.8816 211.907 23.8816C210.442 23.8816 209.212 24.2962 208.217 25.1254C207.222 25.927 206.725 26.9359 206.725 28.1521C206.725 29.3959 207.333 30.4048 208.549 31.1787C209.765 31.9526 211.7 32.5884 214.354 33.0859C217.035 33.5834 219.384 34.1777 221.402 34.8687C228.146 37.1906 231.518 41.3505 231.518 47.3485C231.518 51.4393 229.694 54.77 226.046 57.3406C223.322 59.2743 219.988 60.4806 216.045 60.9598V71.1894H209.385V61.0887C206.565 60.8454 203.992 60.1903 201.667 59.1235C198.654 57.7414 196.304 55.8618 194.618 53.4847C192.932 51.1076 192.089 48.6062 192.089 45.9803H205.149C205.205 48.0534 205.896 49.5736 207.222 50.541C208.549 51.4808 210.249 51.9507 212.322 51.9507C214.229 51.9507 215.653 51.5637 216.592 50.7898C217.56 50.0158 218.044 49.007 218.044 47.7631ZM254.363 15.5064V4.35341H240.391V15.5064H234.669V25.2083H240.391V47.4729C240.391 52.0889 241.538 55.5302 243.832 57.7967C246.127 60.0632 249.678 61.1965 254.488 61.1965C257.224 61.1965 259.85 60.7957 262.365 59.9941V50.002C261.426 50.1679 260.265 50.2508 258.883 50.2508C257.086 50.2508 255.884 49.9191 255.276 49.2557C254.668 48.5923 254.363 47.4176 254.363 45.7315V25.2083H261.744V15.5064H254.363ZM292.549 60.3673C292.052 59.4551 291.609 58.1146 291.222 56.3456C288.652 59.5795 285.058 61.1965 280.442 61.1965C276.213 61.1965 272.62 59.925 269.663 57.3821C266.705 54.8115 265.226 51.5914 265.226 47.7217C265.226 42.8569 267.023 39.1807 270.616 36.693C274.21 34.2054 279.434 32.9615 286.288 32.9615H290.6V30.5983C290.6 26.4798 288.818 24.4206 285.252 24.4206C281.935 24.4206 280.277 26.0514 280.277 29.313H266.304C266.304 24.9734 268.142 21.4492 271.819 18.7404C275.522 16.0316 280.235 14.6772 285.957 14.6772C291.678 14.6772 296.198 16.0731 299.515 18.8648C302.831 21.6565 304.531 25.4847 304.614 30.3495V50.2093C304.67 54.3278 305.305 57.4788 306.521 59.6624V60.3673H292.549ZM283.801 51.2458C285.542 51.2458 286.98 50.8727 288.113 50.1264C289.274 49.3801 290.103 48.5371 290.6 47.5973V40.4245H286.537C281.672 40.4245 279.24 42.6081 279.24 46.9754C279.24 48.2468 279.669 49.2834 280.525 50.0849C281.382 50.8589 282.474 51.2458 283.801 51.2458Z" fill="black"></path>
  </symbol>
</svg>